<?xml version="1.0"?>
<svg xmlns="http://www.w3.org/2000/svg" viewBox="0 0 74 74" width="512" height="512"><g id="Numbers"><text transform="translate(31.995 -142.544)" font-size="18" fill="red" font-family="ArialMT, Arial">5<tspan x="-5.005" y="124">15</tspan><tspan x="-5.005" y="248">25</tspan><tspan x="-5.005" y="372">35</tspan><tspan x="-5.005" y="496">45</tspan><tspan x="-5.005" y="620">55</tspan><tspan x="-5.005" y="744">65</tspan><tspan x="-5.005" y="868">75</tspan><tspan x="-5.005" y="992">85</tspan><tspan x="-5.005" y="1116">95</tspan><tspan x="-10.011" y="1240">105</tspan><tspan x="-9.343" y="1364" letter-spacing="-0.074em">1</tspan><tspan x="-0.668" y="1364">15</tspan><tspan x="-10.011" y="1488">125</tspan><tspan x="-10.011" y="1612">135</tspan><tspan x="-10.011" y="1736">145</tspan><tspan x="-10.011" y="1860">155</tspan><tspan x="-10.011" y="1984">165</tspan><tspan x="-10.011" y="2108">175</tspan><tspan x="-10.011" y="2232">185</tspan><tspan x="-10.011" y="2356">195</tspan><tspan x="-10.011" y="2480">205</tspan><tspan x="-10.011" y="2604">215</tspan><tspan x="-10.011" y="2728">225</tspan><tspan x="-10.011" y="2852">235</tspan><tspan x="-10.011" y="2976">245</tspan><tspan x="-10.011" y="3100">255</tspan><tspan x="-10.011" y="3224">265</tspan><tspan x="-10.011" y="3348">275</tspan><tspan x="-10.011" y="3472">285</tspan><tspan x="-10.011" y="3596">295</tspan></text></g><g id="Layer_5" data-name="Layer 5"><path d="M8.481,28.168a.5.5,0,0,1-.476-.655q.209-.644.448-1.276a.5.5,0,1,1,.936.353q-.23.611-.432,1.233A.5.5,0,0,1,8.481,28.168Z" fill="#323c6b"/><path d="M0,36.458a.5.5,0,0,1-.5-.5V30.539a.5.5,0,0,1,.4-.49l5.577-1.112a.5.5,0,1,1,.2.98L.5,30.949v5.009A.5.5,0,0,1,0,36.458Z" fill="#323c6b"/><path d="M55.347,8.936a.5.5,0,0,1-.278-.916L56.14,7.3a.5.5,0,0,1,.556.831l-1.071.716A.5.5,0,0,1,55.347,8.936Z" fill="#323c6b"/><path d="M51.72,11.359a.5.5,0,0,1-.247-.065,28.787,28.787,0,0,0-6.529-2.708.5.5,0,1,1,.267-.964A29.744,29.744,0,0,1,51.7,10.273l1.272-.85a.5.5,0,1,1,.556.831L52,11.274A.5.5,0,0,1,51.72,11.359Z" fill="#323c6b"/><path d="M63.43,42.51a26.358,26.358,0,0,1-3.85,9.28l4.29,6.42-5.66,5.66-6.42-4.29a26.358,26.358,0,0,1-9.28,3.85L41,71H33l-1.51-7.57a26.358,26.358,0,0,1-9.28-3.85l-6.42,4.29-5.66-5.66,4.29-6.42a26.358,26.358,0,0,1-3.85-9.28L3,41V33l7.57-1.51a26.358,26.358,0,0,1,3.85-9.28l-4.29-6.42,5.66-5.66,6.42,4.29a26.358,26.358,0,0,1,9.28-3.85L33,3h8l1.51,7.57a26.358,26.358,0,0,1,9.28,3.85l6.42-4.29,5.66,5.66-4.29,6.42a26.358,26.358,0,0,1,3.85,9.28L71,33v8Z" fill="#828a9e"/><path d="M41,71.5H33a.5.5,0,0,1-.49-.4l-1.445-7.247a26.773,26.773,0,0,1-8.851-3.672l-6.146,4.106a.5.5,0,0,1-.631-.062l-5.66-5.66a.5.5,0,0,1-.062-.631l4.106-6.146a26.773,26.773,0,0,1-3.672-8.851L2.9,41.49A.5.5,0,0,1,2.5,41V33a.5.5,0,0,1,.4-.49l7.247-1.445a26.773,26.773,0,0,1,3.672-8.851L9.714,16.068a.5.5,0,0,1,.062-.631l5.66-5.66a.5.5,0,0,1,.631-.062l6.146,4.106a26.773,26.773,0,0,1,8.851-3.672L32.51,2.9A.5.5,0,0,1,33,2.5h8a.5.5,0,0,1,.49.4l1.445,7.247a26.773,26.773,0,0,1,8.851,3.672l6.146-4.106a.5.5,0,0,1,.631.062l5.66,5.66a.5.5,0,0,1,.062.631l-4.106,6.146a26.773,26.773,0,0,1,3.672,8.851L71.1,32.51a.5.5,0,0,1,.4.49v8a.5.5,0,0,1-.4.49l-7.247,1.445a26.773,26.773,0,0,1-3.672,8.851l4.106,6.146a.5.5,0,0,1-.062.631l-5.66,5.66a.5.5,0,0,1-.631.062l-6.146-4.106a26.773,26.773,0,0,1-8.851,3.672L41.49,71.1A.5.5,0,0,1,41,71.5Zm-7.59-1h7.18l1.43-7.167a.5.5,0,0,1,.39-.392,25.8,25.8,0,0,0,9.1-3.777.5.5,0,0,1,.554,0l6.079,4.062,5.08-5.08-4.062-6.079a.5.5,0,0,1,0-.554,25.8,25.8,0,0,0,3.777-9.1.5.5,0,0,1,.392-.39L70.5,40.59V33.41l-7.167-1.43a.5.5,0,0,1-.392-.39,25.8,25.8,0,0,0-3.777-9.1.5.5,0,0,1,0-.554l4.062-6.079-5.08-5.08-6.079,4.062a.5.5,0,0,1-.554,0,25.8,25.8,0,0,0-9.1-3.777.5.5,0,0,1-.39-.392L40.59,3.5H33.41l-1.43,7.167a.5.5,0,0,1-.39.392,25.8,25.8,0,0,0-9.1,3.777.5.5,0,0,1-.554,0l-6.079-4.062-5.08,5.08,4.062,6.079a.5.5,0,0,1,0,.554,25.8,25.8,0,0,0-3.777,9.1.5.5,0,0,1-.392.39L3.5,33.41v7.18l7.167,1.43a.5.5,0,0,1,.392.39,25.8,25.8,0,0,0,3.777,9.1.5.5,0,0,1,0,.554l-4.062,6.079,5.08,5.08,6.079-4.062a.5.5,0,0,1,.554,0,25.8,25.8,0,0,0,9.1,3.777.5.5,0,0,1,.39.392Z" fill="#323c6b"/><path d="M20.21,14.42q.507-.336,1.031-.648L15.79,10.13l-.8.8Z" fill="#62667c"/><path d="M49.79,14.42l.969-.648a26.349,26.349,0,0,0-8.249-3.2L41,3H39l1.51,7.57A26.358,26.358,0,0,1,49.79,14.42Z" fill="#62667c"/><path d="M20.21,59.58l-5.221,3.489.8.8,5.451-3.642Q20.718,59.915,20.21,59.58Z" fill="#62667c"/><path d="M49.79,59.58a26.358,26.358,0,0,1-9.28,3.85L39,71h2l1.51-7.57a26.349,26.349,0,0,0,8.249-3.2Z" fill="#62667c"/><path d="M71,41V33l-7.57-1.51a26.358,26.358,0,0,0-3.85-9.28l4.29-6.42-5.66-5.66-1.2.8L61.87,15.79l-4.29,6.42a26.358,26.358,0,0,1,3.85,9.28L69,33v8l-7.57,1.51a26.358,26.358,0,0,1-3.85,9.28l4.29,6.42-4.859,4.859,1.2.8,5.66-5.66-4.29-6.42a26.358,26.358,0,0,0,3.85-9.28Z" fill="#62667c"/><path d="M55,37a17.959,17.959,0,0,1-5.1,12.55,14.007,14.007,0,0,0-25.8,0A18,18,0,1,1,55,37Z" fill="#eeefee"/><path d="M49.9,50.05a.492.492,0,0,1-.092-.009.5.5,0,0,1-.368-.3,13.507,13.507,0,0,0-24.879,0,.5.5,0,0,1-.819.154,18.5,18.5,0,1,1,26.517,0A.5.5,0,0,1,49.9,50.05ZM37,40.5a14.482,14.482,0,0,1,13.045,8.161,17.5,17.5,0,1,0-26.091,0A14.482,14.482,0,0,1,37,40.5Z" fill="#323c6b"/><path d="M49.9,49.55a17.992,17.992,0,0,1-25.8,0,14.007,14.007,0,0,1,25.8,0Z" fill="#b6d2dd"/><path d="M37,55.5a18.355,18.355,0,0,1-13.258-5.6.5.5,0,0,1-.1-.543,14.507,14.507,0,0,1,26.721,0,.5.5,0,0,1-.1.543A18.355,18.355,0,0,1,37,55.5ZM24.694,49.439a17.491,17.491,0,0,0,24.611,0,13.507,13.507,0,0,0-24.611,0Z" fill="#323c6b"/><path d="M41,71.5H33a.5.5,0,0,1-.49-.4l-1.445-7.247a26.773,26.773,0,0,1-8.851-3.672l-6.146,4.106a.5.5,0,0,1-.631-.062l-5.66-5.66a.5.5,0,0,1-.062-.631l4.106-6.146a26.773,26.773,0,0,1-3.672-8.851L2.9,41.49A.5.5,0,0,1,2.5,41V33a.5.5,0,0,1,.4-.49l7.247-1.445a26.773,26.773,0,0,1,3.672-8.851L9.714,16.068a.5.5,0,0,1,.062-.631l5.66-5.66a.5.5,0,0,1,.631-.062l6.146,4.106a26.773,26.773,0,0,1,8.851-3.672L32.51,2.9A.5.5,0,0,1,33,2.5h8a.5.5,0,0,1,.49.4l1.445,7.247a26.773,26.773,0,0,1,8.851,3.672l6.146-4.106a.5.5,0,0,1,.631.062l5.66,5.66a.5.5,0,0,1,.062.631l-4.106,6.146a26.773,26.773,0,0,1,3.672,8.851L71.1,32.51a.5.5,0,0,1,.4.49v8a.5.5,0,0,1-.4.49l-7.247,1.445a26.773,26.773,0,0,1-3.672,8.851l4.106,6.146a.5.5,0,0,1-.062.631l-5.66,5.66a.5.5,0,0,1-.631.062l-6.146-4.106a26.773,26.773,0,0,1-8.851,3.672L41.49,71.1A.5.5,0,0,1,41,71.5Zm-7.59-1h7.18l1.43-7.167a.5.5,0,0,1,.39-.392,25.8,25.8,0,0,0,9.1-3.777.5.5,0,0,1,.554,0l6.079,4.062,5.08-5.08-4.062-6.079a.5.5,0,0,1,0-.554,25.8,25.8,0,0,0,3.777-9.1.5.5,0,0,1,.392-.39L70.5,40.59V33.41l-7.167-1.43a.5.5,0,0,1-.392-.39,25.8,25.8,0,0,0-3.777-9.1.5.5,0,0,1,0-.554l4.062-6.079-5.08-5.08-6.079,4.062a.5.5,0,0,1-.554,0,25.8,25.8,0,0,0-9.1-3.777.5.5,0,0,1-.39-.392L40.59,3.5H33.41l-1.43,7.167a.5.5,0,0,1-.39.392,25.8,25.8,0,0,0-9.1,3.777.5.5,0,0,1-.554,0l-6.079-4.062-5.08,5.08,4.062,6.079a.5.5,0,0,1,0,.554,25.8,25.8,0,0,0-3.777,9.1.5.5,0,0,1-.392.39L3.5,33.41v7.18l7.167,1.43a.5.5,0,0,1,.392.39,25.8,25.8,0,0,0,3.777,9.1.5.5,0,0,1,0,.554l-4.062,6.079,5.08,5.08,6.079-4.062a.5.5,0,0,1,.554,0,25.8,25.8,0,0,0,9.1,3.777.5.5,0,0,1,.39.392Z" fill="#323c6b"/><circle cx="37" cy="31" r="6" fill="#b6d2dd"/><path d="M37,37.5A6.5,6.5,0,1,1,43.5,31,6.508,6.508,0,0,1,37,37.5Zm0-12A5.5,5.5,0,1,0,42.5,31,5.506,5.506,0,0,0,37,25.5Z" fill="#323c6b"/><path d="M17.823,46.521c.008.015.015.03.022.046q.234.511.49,1.005a1,1,0,0,1-1.775.921q-.279-.538-.534-1.1a1,1,0,0,1,1.8-.877Z" fill="#dbd8dd"/><path d="M29.7,58.119a1,1,0,0,1-1.282,1.38A24.112,24.112,0,0,1,18.784,52a1,1,0,1,1,1.589-1.214,22.106,22.106,0,0,0,8.833,6.879A1,1,0,0,1,29.7,58.119Z" fill="#dbd8dd"/></g></svg>
