<svg xmlns="http://www.w3.org/2000/svg" version="1.1" xlink="http://www.w3.org/1999/xlink" xmlns:svgjs="http://svgjs.com/svgjs" width="100%" height="100%" preserveAspectRatio="xMidYMid meet" viewBox="1.5780938703155098e-14 -0.000005558359134738566 146.99998474121094 146.99998474121094" overflow="visible"><defs id="SvgjsDefs177038"><linearGradient id="SvgjsLinearGradientuahdVHYun" gradientUnits="userSpaceOnUse" x1="-8.375010907002432e-9" y1="99.99999999162489" x2="100.00000000837505" y2="-2.5125210356691234e-8"><stop id="SvgjsStop177041" stop-color="#4de588" offset="0.05"></stop><stop id="SvgjsStop177042" stop-color="#179b4a" offset="0.95"></stop></linearGradient></defs><g id="SvgjsG177039" transform="scale(1.1104848713001367)" opacity="1"><g id="SvgjsG177043" class="4HO1ANJVa" transform="translate(1.4210854715202004e-14, 4.434586195064718e-8) scale(1.3237460838043609)" light-content="false" non-strokable="false" fill="url(#SvgjsLinearGradientuahdVHYun)"><path fill="none" d="M21.068 21.068c-15.979 15.979-15.979 41.885 0 57.865 15.979 15.979 41.885 15.979 57.864-.001 15.979-15.979 15.98-41.885 0-57.864-15.979-15.98-41.886-15.98-57.864 0zm32.053 48.031v6.995H46.4v-6.516c-4.594-.205-9.052-1.439-11.658-2.948l2.058-8.023c2.88 1.577 6.926 3.018 11.383 3.018 3.909 0 6.583-1.509 6.583-4.252 0-2.606-2.194-4.251-7.269-5.966-7.338-2.469-12.344-5.898-12.344-12.55 0-6.035 4.251-10.766 11.589-12.207v-6.514h6.72v6.035c4.596.205 7.682 1.166 9.943 2.263l-1.988 7.749c-1.783-.754-4.938-2.332-9.875-2.332-4.457 0-5.897 1.92-5.897 3.84 0 2.263 2.4 3.703 8.229 5.897 8.16 2.88 11.452 6.652 11.452 12.824.001 6.104-4.319 11.315-12.205 12.687z"></path><path d="M50 0C22.385 0 0 22.386 0 50c0 27.613 22.385 50 50 50h50V50C100 22.386 77.613-.001 50 0zm28.932 78.932c-15.979 15.98-41.885 15.98-57.864.001-15.979-15.979-15.979-41.886 0-57.865s41.885-15.979 57.864 0c15.98 15.978 15.979 41.885 0 57.864z"></path><path d="M53.875 43.588c-5.829-2.194-8.229-3.634-8.229-5.897 0-1.92 1.44-3.84 5.897-3.84 4.938 0 8.092 1.577 9.875 2.332l1.988-7.749c-2.262-1.097-5.348-2.058-9.943-2.263v-6.035h-6.72v6.514c-7.338 1.44-11.589 6.172-11.589 12.207 0 6.652 5.006 10.081 12.344 12.55 5.075 1.715 7.269 3.359 7.269 5.966 0 2.743-2.675 4.252-6.583 4.252-4.457 0-8.503-1.44-11.383-3.018l-2.058 8.023c2.606 1.509 7.063 2.743 11.658 2.948v6.516h6.721v-6.995c7.886-1.372 12.206-6.583 12.206-12.687-.001-6.172-3.293-9.943-11.453-12.824z"></path></g></g></svg>