<svg xmlns="http://www.w3.org/2000/svg" version="1.1" xlink="http://www.w3.org/1999/xlink" xmlns:svgjs="http://svgjs.com/svgjs" width="100%" height="100%" preserveAspectRatio="xMidYMid meet" viewBox="0 -0.0000025826102501014248 115.40902709960938 147.0001983642578" overflow="visible"><defs id="SvgjsDefs177025"><linearGradient id="SvgjsLinearGradient0m2JXjbMN" gradientUnits="userSpaceOnUse" x1="-8.375010907002432e-9" y1="99.99999999162489" x2="100.00000000837505" y2="-2.5125210356691234e-8"><stop id="SvgjsStop177028" stop-color="#4de588" offset="0.05"></stop><stop id="SvgjsStop177029" stop-color="#179b4a" offset="0.95"></stop></linearGradient></defs><g id="SvgjsG177026" transform="scale(0.7997853830261924)" opacity="1"><g id="SvgjsG177030" class="um387mjgn" transform="translate(29.450172998278113, 2.8609121593665534e-8) scale(0.8539965400344379)" light-content="false" non-strokable="false" fill="url(#SvgjsLinearGradient0m2JXjbMN)"><path fill="none" d="M21.068 21.068c-15.979 15.979-15.979 41.885 0 57.865 15.979 15.979 41.885 15.979 57.864-.001 15.979-15.979 15.98-41.885 0-57.864-15.979-15.98-41.886-15.98-57.864 0zm32.053 48.031v6.995H46.4v-6.516c-4.594-.205-9.052-1.439-11.658-2.948l2.058-8.023c2.88 1.577 6.926 3.018 11.383 3.018 3.909 0 6.583-1.509 6.583-4.252 0-2.606-2.194-4.251-7.269-5.966-7.338-2.469-12.344-5.898-12.344-12.55 0-6.035 4.251-10.766 11.589-12.207v-6.514h6.72v6.035c4.596.205 7.682 1.166 9.943 2.263l-1.988 7.749c-1.783-.754-4.938-2.332-9.875-2.332-4.457 0-5.897 1.92-5.897 3.84 0 2.263 2.4 3.703 8.229 5.897 8.16 2.88 11.452 6.652 11.452 12.824.001 6.104-4.319 11.315-12.205 12.687z"></path><path d="M50 0C22.385 0 0 22.386 0 50c0 27.613 22.385 50 50 50h50V50C100 22.386 77.613-.001 50 0zm28.932 78.932c-15.979 15.98-41.885 15.98-57.864.001-15.979-15.979-15.979-41.886 0-57.865s41.885-15.979 57.864 0c15.98 15.978 15.979 41.885 0 57.864z"></path><path d="M53.875 43.588c-5.829-2.194-8.229-3.634-8.229-5.897 0-1.92 1.44-3.84 5.897-3.84 4.938 0 8.092 1.577 9.875 2.332l1.988-7.749c-2.262-1.097-5.348-2.058-9.943-2.263v-6.035h-6.72v6.514c-7.338 1.44-11.589 6.172-11.589 12.207 0 6.652 5.006 10.081 12.344 12.55 5.075 1.715 7.269 3.359 7.269 5.966 0 2.743-2.675 4.252-6.583 4.252-4.457 0-8.503-1.44-11.383-3.018l-2.058 8.023c2.606 1.509 7.063 2.743 11.658 2.948v6.516h6.721v-6.995c7.886-1.372 12.206-6.583 12.206-12.687-.001-6.172-3.293-9.943-11.453-12.824z"></path></g><g id="SvgjsG177031" class="text" transform="translate(72.42, 142.85965403205293) scale(1)" light-content="false" fill="#383838"><path d="M-53.04 -39.54C-51.28 -39.06 -49.68 -38.48 -48.24 -37.8L-47.1 -40.08C-48.7 -40.88 -50.53 -41.54 -52.59 -42.06C-54.65 -42.58 -56.64 -42.84 -58.56 -42.84C-60.8 -42.8 -62.83 -42.35 -64.65 -41.49C-66.47 -40.63 -67.89 -39.43 -68.91 -37.89C-69.93 -36.35 -70.44 -34.58 -70.44 -32.58C-70.44 -30.54 -69.91 -28.84 -68.85 -27.48C-67.79 -26.12 -66.48 -25.03 -64.92 -24.21C-63.36 -23.39 -61.38 -22.54 -58.98 -21.66C-56.82 -20.86 -55.03 -20.07 -53.61 -19.29C-52.19 -18.51 -51.01 -17.48 -50.07 -16.2C-49.13 -14.92 -48.66 -13.34 -48.66 -11.46C-48.66 -9.46 -49.17 -7.75 -50.19 -6.33C-51.21 -4.91 -52.53 -3.85 -54.15 -3.15C-55.77 -2.45 -57.48 -2.1 -59.28 -2.1C-61.32 -2.1 -63.42 -2.52 -65.58 -3.36C-67.74 -4.2 -69.56 -5.18 -71.04 -6.3L-72.42 -3.9C-67.98 -0.98 -63.5 0.48 -58.98 0.48C-56.38 0.48 -54.07 -0.02 -52.05 -1.02C-50.03 -2.02 -48.46 -3.43 -47.34 -5.25C-46.22 -7.07 -45.66 -9.16 -45.66 -11.52C-45.66 -14 -46.2 -16.03 -47.28 -17.61C-48.36 -19.19 -49.69 -20.44 -51.27 -21.36C-52.85 -22.28 -54.84 -23.18 -57.24 -24.06C-59.44 -24.9 -61.24 -25.67 -62.64 -26.37C-64.04 -27.07 -65.19 -27.95 -66.09 -29.01C-66.99 -30.07 -67.44 -31.36 -67.44 -32.88C-67.44 -35.04 -66.6 -36.81 -64.92 -38.19C-63.24 -39.57 -61 -40.26 -58.2 -40.26C-56.52 -40.26 -54.8 -40.02 -53.04 -39.54Z M-11.04 -14.1L-5.46 0L-2.16 0L-20.16 -44.46L-20.4 -44.46L-38.4 0L-35.46 0L-29.82 -14.1ZM-12.12 -16.86L-28.74 -16.86L-20.34 -37.8Z M35.04 -42.6L31.68 -42.6L17.1 -4.92L2.22 -42.6L-1.2 -42.6L16.92 1.98Z M71.04 -42.6L44.76 -42.6L44.76 0L71.88 0L71.88 -2.82L47.7 -2.82L47.7 -20.04L68.7 -20.04L68.7 -22.86L47.7 -22.86L47.7 -39.78L71.04 -39.78Z"></path></g><g id="SvgjsG177032" class="text" transform="translate(70.68, 182.69956754006614) scale(1)" light-content="false" fill="#383838"><path d="M-42.86 -28.12L-42.93 -28.12L-56.95 -8.7L-70.64 -28.12L-70.68 -28.12L-70.68 0L-65.54 0L-65.54 -12.08L-57.06 -0.37L-56.99 -0.37L-48.18 -12.88L-48.18 0L-42.86 0Z M-35.68 -20.34C-36.92 -18.21 -37.53 -15.92 -37.53 -13.47C-37.53 -10.98 -36.92 -8.68 -35.68 -6.57C-34.44 -4.47 -32.77 -2.8 -30.67 -1.56C-28.57 -0.32 -26.26 0.29 -23.77 0.29C-21.3 0.29 -19 -0.32 -16.89 -1.56C-14.77 -2.8 -13.08 -4.47 -11.82 -6.57C-10.56 -8.68 -9.93 -10.98 -9.93 -13.47C-9.93 -15.92 -10.56 -18.21 -11.82 -20.34C-13.08 -22.47 -14.77 -24.16 -16.89 -25.42C-19 -26.68 -21.3 -27.31 -23.77 -27.31C-26.24 -27.31 -28.53 -26.68 -30.65 -25.42C-32.77 -24.16 -34.44 -22.47 -35.68 -20.34ZM-30.91 -9.14C-31.65 -10.46 -32.03 -11.91 -32.03 -13.47C-32.03 -15.09 -31.66 -16.56 -30.93 -17.88C-30.19 -19.2 -29.2 -20.24 -27.93 -21.02C-26.67 -21.79 -25.27 -22.17 -23.73 -22.17C-22.19 -22.17 -20.79 -21.79 -19.53 -21.02C-18.27 -20.24 -17.27 -19.2 -16.54 -17.88C-15.8 -16.56 -15.44 -15.09 -15.44 -13.47C-15.44 -11.88 -15.79 -10.43 -16.5 -9.12C-17.21 -7.81 -18.19 -6.77 -19.44 -6C-20.69 -5.23 -22.07 -4.85 -23.59 -4.85C-25.15 -4.85 -26.58 -5.23 -27.86 -6C-29.15 -6.77 -30.16 -7.82 -30.91 -9.14Z M19.73 -27.02L14.37 -27.02L14.48 -10.76L-4.39 -28.08L-4.61 -28.08L-4.61 0L0.79 0L0.68 -15.97L19.58 1.1L19.73 1.1Z M45.13 -27.02L26.71 -27.02L26.71 0L45.65 0L45.65 -5.14L32.03 -5.14L32.03 -10.98L43.63 -10.98L43.63 -16.11L32.03 -16.11L32.03 -21.88L45.13 -21.88Z M73.62 -27.02L67.05 -27.02L60.99 -14.54L54.79 -27.02L48.22 -27.02L58.16 -8.41L58.16 0L63.49 0L63.49 -8.41Z"></path></g></g></svg>