<svg width="250" height="70" viewBox="0 0 250 70" fill="none" xmlns="http://www.w3.org/2000/svg">
<path d="M35.4304 19.2377C36.65 19.6512 37.7588 20.1507 38.7568 20.7364L39.5468 18.7726C38.438 18.0835 37.1698 17.5151 35.7422 17.0672C34.3146 16.6193 32.9355 16.3953 31.605 16.3953C30.0527 16.4298 28.6459 16.8174 27.3846 17.5581C26.1234 18.2989 25.1393 19.3325 24.4324 20.6589C23.7256 21.9854 23.3721 23.5099 23.3721 25.2326C23.3721 26.9897 23.7394 28.4539 24.474 29.6253C25.2086 30.7967 26.1164 31.7356 27.1975 32.4419C28.2786 33.1481 29.6507 33.8803 31.3139 34.6382C32.8108 35.3273 34.0513 36.0078 35.0353 36.6796C36.0194 37.3514 36.8371 38.2386 37.4886 39.3411C38.14 40.4436 38.4657 41.8045 38.4657 43.4238C38.4657 45.1464 38.1123 46.6193 37.4054 47.8424C36.6985 49.0655 35.7838 49.9785 34.6611 50.5814C33.5385 51.1843 32.3534 51.4858 31.106 51.4858C29.6923 51.4858 28.237 51.124 26.7401 50.4005C25.2432 49.677 23.982 48.8329 22.9563 47.8682L22 49.9354C25.0769 52.4505 28.1816 53.708 31.3139 53.708C33.1157 53.708 34.7166 53.2773 36.1164 52.416C37.5163 51.5547 38.6043 50.3402 39.3805 48.7726C40.1566 47.205 40.5447 45.4048 40.5447 43.3721C40.5447 41.236 40.1705 39.4875 39.422 38.1266C38.6736 36.7657 37.7519 35.6891 36.657 34.8966C35.562 34.1042 34.183 33.329 32.5197 32.5711C30.9951 31.8475 29.7477 31.1843 28.7775 30.5814C27.8073 29.9785 27.0104 29.2205 26.3867 28.3075C25.763 27.3945 25.4511 26.2834 25.4511 24.9742C25.4511 23.1137 26.0333 21.5891 27.1975 20.4005C28.3617 19.2119 29.9141 18.6176 31.8545 18.6176C33.0187 18.6176 34.2107 18.8243 35.4304 19.2377ZM64.5364 41.1499L68.4033 53.2946H70.6902L58.2162 15H58.0499L45.5759 53.2946H47.6133L51.5218 41.1499H64.5364ZM63.7879 38.7726H52.2703L58.0915 20.7364L63.7879 38.7726ZM96.4699 16.6021H94.1414L84.0374 49.0568L73.7256 16.6021H71.3555L83.9127 55L96.4699 16.6021ZM121.418 16.6021H103.206V53.2946H122V50.8656H105.243V36.0336H119.796V33.6047H105.243V19.031H121.418V16.6021Z" fill="#383838"/>
<path d="M147.279 15H147.231L137.515 41.5845L128.028 15H128V53.4942H131.562V36.9576L137.439 52.9877H137.487L143.593 35.8624V53.4942H147.279V15ZM152.255 25.6502C151.396 28.566 150.973 31.7009 150.973 35.0548C150.973 38.4634 151.396 41.6119 152.255 44.5003C153.114 47.3751 154.272 49.6612 155.727 51.3587C157.182 53.0561 158.783 53.8912 160.509 53.8912C162.22 53.8912 163.814 53.0561 165.277 51.3587C166.746 49.6612 167.917 47.3751 168.79 44.5003C169.663 41.6119 170.1 38.4634 170.1 35.0548C170.1 31.7009 169.663 28.566 168.79 25.6502C167.917 22.7344 166.746 20.4209 165.277 18.6961C163.814 16.9713 162.22 16.1088 160.509 16.1088C158.797 16.1088 157.21 16.9713 155.741 18.6961C154.272 20.4209 153.114 22.7344 152.255 25.6502ZM155.561 40.9822C155.048 39.1752 154.784 37.1903 154.784 35.0548C154.784 32.8371 155.041 30.8248 155.547 29.0178C156.06 27.2108 156.746 25.7871 157.626 24.7194C158.499 23.6653 159.469 23.1451 160.536 23.1451C161.604 23.1451 162.574 23.6653 163.447 24.7194C164.32 25.7871 165.013 27.2108 165.519 29.0178C166.032 30.8248 166.281 32.8371 166.281 35.0548C166.281 37.2313 166.039 39.2163 165.547 41.0096C165.055 42.8029 164.376 44.2266 163.509 45.2806C162.643 46.3347 161.687 46.8549 160.633 46.8549C159.552 46.8549 158.561 46.3347 157.674 45.2806C156.78 44.2266 156.08 42.7892 155.561 40.9822ZM190.654 16.5058H186.94L187.016 38.7645L173.939 15.0548H173.787V53.4942H177.529L177.453 31.6324L190.55 55H190.654V16.5058ZM208.256 16.5058H195.491V53.4942H208.617V46.4579H199.178V38.4634H207.217V31.4408H199.178V23.5421H208.256V16.5058ZM228 16.5058H223.447L219.247 33.59L214.951 16.5058H210.398L217.286 41.9815V53.4942H220.98V41.9815L228 16.5058Z" fill="#383838"/>
</svg>
