<svg id="Layer_3" height="512" viewBox="0 0 64 64" width="512" xmlns="http://www.w3.org/2000/svg" data-name="Layer 3"><path d="m12 9h45v24h-45z" fill="#559b2d"/><path d="m16 26v1a2 2 0 0 1 2 2h33a2 2 0 0 1 2-2v-12a2 2 0 0 1 -2-2h-33a2 2 0 0 1 -2 2v7" fill="#6bc13b"/><path d="m48.76 21v-8h-30.76a2 2 0 0 1 -2 2v8h30.76a2 2 0 0 0 2-2z" fill="#7bdf45"/><path d="m12 29v-3h7a2 2 0 0 0 2-2v-2h-6a4 4 0 0 0 -3-3.874v-6.126l-4 2h-6v12h6z" fill="#f2b9a1"/><path d="m54 52-20-1a6.738 6.738 0 0 1 -5.007-2.23l-6.287-6.986a2.752 2.752 0 0 1 -.706-1.84v-.193a2.751 2.751 0 0 1 2.751-2.751 2.75 2.75 0 0 1 2.071.939l6.184 5.219c-.006-.052-.006-.105-.006-.158a2 2 0 0 1 2-2h7a3.618 3.618 0 0 1 3.236-2h1.294a8.377 8.377 0 0 1 5.924 2.453 23.973 23.973 0 0 1 1.546 2.547z" fill="#f2b9a1"/><circle cx="34" cy="21" fill="#4d8c28" r="5"/><path d="m42 46h-7a3 3 0 0 1 -3-3h2a1 1 0 0 0 1 1h7z" fill="#f29c81"/><path d="m54 39h8v16h-8z" fill="#3b5892"/><path d="m59 50v-11h-5v13h3a2 2 0 0 0 2-2z" fill="#4c6cb5"/></svg>